<svg viewBox="0 0 120 22" xmlns="http://www.w3.org/2000/svg"><path d="M34.304 6.582C32.797 9.23 28.893 16.086 26.838 19.693C26.028 21.116 24.523 21.988 22.886 21.991L8.664 22.013C8.224 22.013 7.946 21.54 8.162 21.157L8.724 20.164C8.927 19.803 9.309 19.581 9.723 19.581L16.903 19.581C18.143 19.581 19.286 18.915 19.898 17.836L26.199 6.727C26.602 6.016 27.355 5.572 28.173 5.564L33.673 5.512C34.226 5.506 34.578 6.102 34.304 6.582ZM14.501 4.177C15.112 3.099 16.256 2.433 17.496 2.433L24.676 2.433C25.09 2.433 25.472 2.21 25.676 1.85L26.237 0.857C26.453 0.473 26.176 0 25.736 0L11.513 0.022C9.876 0.025 8.371 0.897 7.561 2.32C5.506 5.929 1.603 12.783 0.095 15.431C-0.179 15.912 0.172 16.507 0.726 16.501L6.226 16.449C7.045 16.441 7.797 15.998 8.201 15.286ZM51.51 5.075C50.5 4.468 49.322 4.166 47.976 4.166C46.629 4.166 45.468 4.469 44.442 5.075C43.414 5.664 42.615 6.48 42.043 7.524C41.471 8.551 41.185 9.711 41.185 11.007C41.185 12.303 41.47 13.472 42.043 14.516C42.615 15.543 43.414 16.359 44.442 16.965C45.468 17.554 46.647 17.849 47.976 17.849C49.305 17.849 50.483 17.554 51.51 16.965C52.537 16.359 53.336 15.543 53.908 14.516C54.48 13.473 54.767 12.304 54.767 11.007C54.767 9.71 54.481 8.575 53.908 7.548C53.336 6.505 52.537 5.68 51.51 5.075ZM51.233 13.178C50.879 13.784 50.416 14.247 49.844 14.566C49.272 14.885 48.649 15.046 47.976 15.046C47.303 15.046 46.696 14.895 46.107 14.592C45.535 14.273 45.073 13.81 44.719 13.203C44.365 12.597 44.189 11.866 44.189 11.007C44.189 10.148 44.366 9.442 44.719 8.836C45.072 8.231 45.535 7.767 46.107 7.448C46.696 7.129 47.327 6.968 48.001 6.968C48.674 6.968 49.271 7.128 49.843 7.448C50.415 7.767 50.878 8.23 51.232 8.836C51.585 9.425 51.761 10.149 51.761 11.007C51.761 11.865 51.584 12.572 51.232 13.178ZM72.093 4.165C71.033 4.165 70.141 4.393 69.418 4.847C68.694 5.301 68.138 5.848 67.752 6.488C67.466 5.832 66.986 5.285 66.313 4.847C65.64 4.393 64.832 4.165 63.89 4.165C63.318 4.165 62.779 4.258 62.274 4.443C61.769 4.611 61.324 4.855 60.936 5.175C60.549 5.494 60.221 5.857 59.951 6.26L59.774 6.26L59.774 4.569L56.947 4.569L56.947 17.443L59.951 17.443L59.951 10.779C59.951 10.038 60.069 9.381 60.305 8.81C60.54 8.238 60.877 7.791 61.315 7.472C61.753 7.135 62.258 6.967 62.83 6.967C63.604 6.967 64.201 7.195 64.621 7.649C65.042 8.087 65.253 8.776 65.253 9.719L65.253 17.443L68.282 17.443L68.282 10.754C68.282 10.014 68.4 9.365 68.636 8.81C68.888 8.238 69.233 7.791 69.67 7.472C70.124 7.135 70.647 6.967 71.236 6.967C71.96 6.967 72.531 7.195 72.952 7.649C73.373 8.087 73.583 8.768 73.583 9.693L73.583 17.443L76.562 17.443L76.562 9.163C76.562 7.666 76.192 6.462 75.451 5.554C74.711 4.628 73.591 4.165 72.093 4.165ZM85.694 4.165C84.852 4.165 84.07 4.358 83.346 4.746C82.622 5.133 82.075 5.638 81.705 6.26L81.528 6.26L81.528 4.569L78.701 4.569L78.701 17.443L81.705 17.443L81.705 10.703C81.705 10.03 81.832 9.416 82.084 8.86C82.354 8.289 82.724 7.833 83.195 7.497C83.666 7.143 84.214 6.967 84.836 6.967C85.627 6.967 86.258 7.202 86.729 7.674C87.201 8.128 87.436 8.827 87.436 9.769L87.436 17.443L90.465 17.443L90.465 9.365C90.465 7.8 90.062 6.546 89.254 5.603C88.463 4.644 87.276 4.164 85.695 4.164ZM117.199 4.57L117.199 6.236L117.022 6.236C116.803 5.865 116.5 5.529 116.114 5.226C115.727 4.906 115.272 4.654 114.75 4.468C114.228 4.267 113.648 4.165 113.008 4.165C112.133 4.165 111.317 4.334 110.559 4.67C109.802 5.007 109.146 5.478 108.59 6.083C108.035 6.689 107.598 7.413 107.278 8.254C106.958 9.078 106.797 9.996 106.797 11.006C106.797 12.352 107.067 13.539 107.605 14.565C108.161 15.592 108.91 16.399 109.853 16.988C110.796 17.56 111.847 17.847 113.008 17.847C113.984 17.847 114.809 17.637 115.482 17.216C116.172 16.795 116.685 16.324 117.021 15.802L117.198 15.802L117.198 17.443L120 17.443L120 4.57L117.198 4.57ZM116.668 13.153C116.315 13.759 115.852 14.229 115.28 14.566C114.725 14.903 114.127 15.071 113.488 15.071C112.849 15.071 112.251 14.911 111.696 14.591C111.141 14.254 110.686 13.783 110.333 13.178C109.979 12.555 109.803 11.831 109.803 11.007C109.803 10.183 109.971 9.468 110.308 8.861C110.662 8.255 111.116 7.792 111.671 7.473C112.243 7.136 112.849 6.968 113.489 6.968C114.129 6.968 114.726 7.136 115.281 7.473C115.853 7.792 116.316 8.255 116.67 8.861C117.023 9.468 117.199 10.183 117.199 11.007C117.199 11.831 117.022 12.547 116.67 13.153ZM102.245 5.049C101.319 4.46 100.175 4.165 98.812 4.165C97.533 4.165 96.405 4.485 95.429 5.124C94.453 5.747 93.687 6.58 93.132 7.624C92.577 8.667 92.299 9.803 92.299 11.032C92.299 12.345 92.585 13.514 93.158 14.541C93.73 15.568 94.513 16.375 95.506 16.964C96.515 17.553 97.668 17.848 98.964 17.848C100.377 17.848 101.564 17.536 102.523 16.914C103.5 16.291 104.282 15.466 104.871 14.44L102.422 13.228C102.102 13.784 101.656 14.247 101.084 14.617C100.528 14.987 99.839 15.172 99.014 15.172C98.323 15.172 97.692 15.013 97.121 14.692C96.549 14.373 96.086 13.902 95.732 13.279C95.492 12.822 95.339 12.291 95.27 11.689L105.048 11.689C105.065 11.605 105.081 11.478 105.098 11.31C105.115 11.125 105.123 10.923 105.123 10.704C105.123 9.475 104.879 8.373 104.391 7.397C103.903 6.405 103.188 5.622 102.245 5.05ZM95.396 9.492C95.468 9.214 95.563 8.952 95.681 8.71C95.985 8.07 96.414 7.574 96.969 7.22C97.524 6.85 98.146 6.665 98.837 6.665C99.375 6.665 99.847 6.758 100.25 6.942C100.654 7.11 100.999 7.338 101.285 7.624C101.571 7.91 101.781 8.222 101.916 8.558C102.067 8.878 102.151 9.189 102.168 9.492Z" fill="#B3B3B3" height="22.013130757319356px" id="ZlVurvhYT" width="119.99999845199693px"/></svg>